# xmcd
# 
# Track frame offsets:
#     150
#     2770
#     22170
#     43417
#     64582
#     69710
#     89215
#     110617
#     132297
#     149177
#     167947
#     172420
#     192145
#     212497
#     233942
#     256540
#     263590
# 
# Disc length: 3762
# 
# Revision: 2
# Processed by: cddbd v1.5.2PL0 Copyright (c) Steve Scherf et al.
# Submitted via: BonkEnc v1.0
# 
DISCID=090eb011
DTITLE=Bobby Valentino - Bobby Valentino
DYEAR=2005
DGENRE=R&B
TTITLE0=Some Bobby
TTITLE1=Slow Down
TTITLE2=Give Me A Chance (feat Ludacris)
TTITLE3=Never Lonely
TTITLE4=Mista Valentino (Interlude)
TTITLE5=Tell Me
TTITLE6=My Angel (Never Leave You)
TTITLE7=Want You To Know Me
TTITLE8=Gangsta Love
TTITLE9=Come Touch me
TTITLE10=I'll Forgive You (Interlude)
TTITLE11=I'll Forgive You
TTITLE12=Love Dream
TTITLE13=Lights Down Low
TTITLE14=One Girl To Love
TTITLE15=Thank You Lord (Outro)
TTITLE16=Slow Down (Remix) (Bonus Track)
EXTD=
EXTT0=
EXTT1=
EXTT2=
EXTT3=
EXTT4=
EXTT5=
EXTT6=
EXTT7=
EXTT8=
EXTT9=
EXTT10=
EXTT11=
EXTT12=
EXTT13=
EXTT14=
EXTT15=
EXTT16=
PLAYORDER=
